<?xml version="1.0" standalone="no"?>
<!DOCTYPE svg PUBLIC "-//W3C//DTD SVG 20010904//EN"
 "http://www.w3.org/TR/2001/REC-SVG-20010904/DTD/svg10.dtd">
<svg version="1.0" xmlns="http://www.w3.org/2000/svg"
 width="433.000000pt" height="433.000000pt" viewBox="0 0 433.000000 433.000000"
 preserveAspectRatio="xMidYMid meet">
<metadata>
Created by potrace 1.11, written by Peter Selinger 2001-2013
</metadata>
<g transform="translate(0.000000,433.000000) scale(0.100000,-0.100000)"
fill="#000000" stroke="none">
<path d="M1925 3694 c-399 -60 -703 -214 -962 -488 -185 -195 -308 -420 -373
-676 -41 -165 -50 -239 -50 -408 0 -359 101 -667 310 -947 193 -259 455 -447
765 -550 401 -134 830 -103 1205 85 182 91 294 175 437 324 211 220 353 498
409 801 28 151 26 462 -4 602 -137 634 -593 1094 -1224 1234 -72 16 -137 21
-288 24 -107 2 -208 1 -225 -1z m440 -120 c210 -37 457 -142 625 -268 111 -83
270 -249 342 -357 222 -331 306 -741 228 -1118 -78 -381 -305 -726 -615 -933
-517 -346 -1151 -347 -1673 -2 -115 76 -310 271 -386 387 -160 242 -240 482
-255 765 -13 253 33 476 144 707 227 471 659 775 1189 835 95 11 290 4 401
-16z"/>
<path d="M2480 3375 c-13 -39 -9 -50 20 -58 16 -4 22 2 31 35 8 32 8 43 -3 49
-24 16 -36 9 -48 -26z"/>
<path d="M1947 3362 c-332 -40 -641 -224 -837 -497 -44 -61 -120 -194 -120
-209 0 -13 17 -4 54 28 95 81 262 100 380 42 32 -16 79 -48 103 -72 41 -41 93
-131 93 -164 0 -27 17 5 50 93 37 97 140 283 205 367 115 147 301 276 481 333
43 14 80 29 82 35 5 17 -135 43 -266 50 -79 5 -161 2 -225 -6z"/>
<path d="M2459 3300 c-38 -11 -223 -98 -310 -147 -122 -68 -240 -191 -330
-343 -75 -128 -109 -202 -148 -327 -31 -96 -24 -113 26 -67 148 137 365 174
578 98 172 -61 312 -212 349 -378 6 -27 16 -51 23 -53 19 -7 74 176 92 307 24
180 24 279 2 395 -24 120 -62 213 -140 345 -28 47 -59 101 -70 121 -26 47 -41
58 -72 49z"/>
<path d="M2540 3280 c0 -6 22 -38 48 -73 76 -100 146 -250 180 -392 17 -71 23
-294 9 -380 -22 -145 -30 -186 -44 -232 -18 -58 -13 -75 15 -50 31 29 131 68
185 74 104 11 234 -41 303 -120 42 -48 84 -131 84 -165 0 -37 23 -20 32 23 14
68 15 237 1 345 -15 113 -63 270 -119 383 -106 215 -309 418 -529 530 -118 59
-165 76 -165 57z"/>
<path d="M2230 2481 c-5 -11 -10 -24 -10 -30 0 -5 -5 -22 -12 -38 -6 -15 -12
-33 -14 -39 -2 -10 -45 -151 -163 -529 -11 -33 -31 -100 -46 -150 -15 -49 -41
-130 -57 -180 -17 -49 -31 -97 -33 -105 -3 -15 -36 -120 -94 -305 -16 -49 -34
-109 -40 -132 -13 -48 -20 -52 -39 -23 -9 14 -10 42 -6 90 6 70 6 70 -19 70
-32 0 -37 -15 -37 -105 0 -64 3 -77 26 -104 30 -36 72 -41 97 -13 18 20 104
277 212 637 15 50 33 108 41 130 7 22 32 101 54 175 23 74 50 160 60 190 10
30 36 114 58 185 88 283 87 276 71 286 -22 14 -37 11 -49 -10z"/>
<path d="M1180 2340 l0 -90 50 0 50 0 0 45 0 45 79 0 80 0 -9 -27 c-5 -16 -41
-136 -81 -268 -39 -132 -74 -246 -77 -253 -3 -10 8 -12 48 -10 l53 3 27 95
c15 52 53 181 84 287 31 105 56 207 56 227 l0 36 -180 0 -180 0 0 -90z"/>
<path d="M1833 2399 c-40 -28 -43 -34 -43 -75 0 -24 3 -44 6 -44 3 0 25 12 50
26 l44 26 0 -276 0 -276 45 0 45 0 0 325 0 325 -52 0 c-42 -1 -62 -7 -95 -31z"/>
<path d="M2184 1826 c-17 -8 -44 -30 -59 -51 -24 -31 -29 -48 -33 -115 -4 -66
-1 -85 17 -122 31 -63 64 -83 136 -83 l60 0 -67 -130 c-37 -71 -67 -133 -68
-137 0 -5 22 -8 50 -8 l50 0 66 133 c94 186 114 244 114 325 0 129 -65 202
-180 201 -30 0 -69 -6 -86 -13z m144 -98 c40 -44 41 -129 1 -169 -21 -21 -78
-26 -109 -9 -44 24 -49 123 -9 174 27 35 86 36 117 4z"/>
<path d="M2660 1823 c-47 -24 -77 -73 -85 -136 -4 -29 -5 -129 -3 -222 3 -148
6 -174 23 -204 41 -69 108 -94 210 -79 58 9 92 31 120 79 18 31 20 52 20 249
0 197 -2 218 -20 249 -35 59 -67 76 -153 79 -59 2 -85 -1 -112 -15z m165 -98
c25 -24 25 -26 25 -213 0 -173 -2 -191 -20 -214 -40 -51 -141 -39 -157 19 -4
15 -8 108 -8 205 0 173 0 177 24 202 34 36 101 37 136 1z"/>
</g>
</svg>
