<?xml version="1.0" encoding="UTF-8" standalone="no"?>
<svg
   xmlns:dc="http://purl.org/dc/elements/1.1/"
   xmlns:cc="http://creativecommons.org/ns#"
   xmlns:rdf="http://www.w3.org/1999/02/22-rdf-syntax-ns#"
   xmlns:svg="http://www.w3.org/2000/svg"
   xmlns="http://www.w3.org/2000/svg"
   xmlns:sodipodi="http://sodipodi.sourceforge.net/DTD/sodipodi-0.dtd"
   xmlns:inkscape="http://www.inkscape.org/namespaces/inkscape"
   version="1.0"
   width="314.3024"
   height="315.25937"
   viewBox="0 0 3143.024 3152.5937"
   preserveAspectRatio="xMidYMid meet"
   id="svg23"
   sodipodi:docname="logo.svg"
   inkscape:version="1.0.1 (3bc2e813f5, 2020-09-07)">
  <metadata
     id="metadata29">
    <rdf:RDF>
      <cc:Work
         rdf:about="">
        <dc:format>image/svg+xml</dc:format>
        <dc:type
           rdf:resource="http://purl.org/dc/dcmitype/StillImage" />
        <dc:title></dc:title>
      </cc:Work>
    </rdf:RDF>
  </metadata>
  <defs
     id="defs27" />
  <sodipodi:namedview
     pagecolor="#ffffff"
     bordercolor="#666666"
     borderopacity="1"
     objecttolerance="10"
     gridtolerance="10"
     guidetolerance="10"
     inkscape:pageopacity="0"
     inkscape:pageshadow="2"
     inkscape:window-width="1366"
     inkscape:window-height="705"
     id="namedview25"
     showgrid="false"
     fit-margin-top="0"
     fit-margin-left="0"
     fit-margin-right="0"
     fit-margin-bottom="0"
     inkscape:zoom="1.4385027"
     inkscape:cx="161.5"
     inkscape:cy="154.90497"
     inkscape:window-x="-8"
     inkscape:window-y="-8"
     inkscape:window-maximized="1"
     inkscape:current-layer="svg23" />
  <g
     id="layer101"
     fill="#ffffff"
     stroke="none"
     transform="translate(-255,-320.95026)">
    <path
       d="M 1760,3472 C 1102,3443 529,3009 326,2388 c -59,-180 -71,-267 -71,-493 1,-179 4,-225 23,-311 69,-318 208,-571 441,-805 140,-140 252,-220 416,-300 592,-285 1297,-178 1765,268 153,146 257,286 345,468 102,211 144,386 152,635 9,270 -41,501 -163,750 -197,402 -597,723 -1028,825 -156,37 -313,54 -446,47 z m 341,-111 c 613,-122 1075,-598 1181,-1216 28,-165 21,-409 -15,-565 C 3129,1000 2703,579 2119,448 c -139,-31 -445,-33 -579,-5 -312,67 -548,194 -766,411 -170,170 -279,339 -353,550 -279,792 145,1651 942,1911 90,29 219,56 327,69 75,9 319,-5 411,-23 z"
       id="path2" />
    <path
       d="m 1417,3138 c -21,-16 -44,-76 -42,-108 1,-14 2,-46 3,-72 2,-44 4,-48 27,-46 24,2 24,3 18,73 -6,81 8,128 32,104 8,-8 30,-70 50,-139 20,-69 42,-141 50,-160 7,-19 26,-80 43,-135 17,-55 42,-136 56,-180 14,-44 46,-147 71,-230 26,-82 68,-220 94,-305 27,-85 63,-202 80,-260 42,-138 47,-150 69,-150 30,0 31,8 12,68 -10,31 -42,131 -70,222 -158,504 -195,626 -235,755 -169,548 -179,575 -223,575 -10,0 -26,-6 -35,-12 z"
       id="path4" />
    <path
       d="m 1950,2700 c 38,-77 70,-142 70,-145 0,-3 -10,-1 -21,6 -38,20 -109,2 -146,-37 -55,-59 -69,-173 -30,-254 28,-58 79,-85 157,-85 54,0 73,5 103,25 65,45 93,151 67,255 -6,22 -48,115 -92,208 l -82,167 h -48 -48 z m 71,-220 c 32,-18 52,-68 47,-122 -7,-72 -37,-95 -116,-90 -33,3 -62,57 -62,115 0,40 5,54 29,78 31,30 67,37 102,19 z"
       id="path6" />
    <path
       d="m 2370,2822 c -47,-23 -77,-72 -85,-135 -4,-29 -5,-127 -3,-217 4,-195 15,-228 89,-268 57,-30 162,-28 206,4 67,50 68,55 71,290 3,204 2,218 -18,260 -29,59 -77,84 -162,84 -40,0 -76,-6 -98,-18 z m 139,-73 c 17,-6 36,-19 41,-29 6,-11 10,-106 10,-214 0,-182 -1,-197 -20,-216 -27,-27 -63,-34 -105,-20 -56,19 -60,34 -60,240 0,225 5,238 91,249 6,0 25,-4 43,-10 z"
       id="path8" />
    <path
       d="m 990,2229 c 0,-5 33,-121 74,-257 40,-136 77,-259 80,-274 l 6,-28 h -85 -85 v 50 50 h -45 -45 v -90 -90 h 180 180 v 37 c 0,20 -31,140 -69,267 -38,127 -77,257 -86,289 l -16,57 h -45 c -24,0 -44,-5 -44,-11 z"
       id="path10" />
    <path
       d="m 1600,1965 c 0,-151 -3,-275 -8,-275 -4,0 -24,11 -45,25 l -37,26 v -45 c 0,-42 3,-47 44,-76 34,-23 56,-30 90,-30 h 46 v 325 325 h -45 -45 z"
       id="path12" />
    <path
       d="m 3031,2060 c -30,-102 -98,-182 -196,-233 -55,-30 -67,-32 -155,-32 -83,1 -102,4 -150,28 -30,15 -63,32 -72,39 -27,20 -29,5 -8,-58 44,-125 65,-428 40,-564 -6,-36 -21,-92 -32,-125 -24,-70 -102,-232 -123,-255 -8,-9 -15,-20 -15,-24 0,-4 -16,-28 -36,-52 -20,-25 -35,-47 -32,-49 6,-7 97,31 168,68 111,60 197,124 291,217 185,184 295,396 344,665 15,85 14,334 -2,389 l -9,29 z"
       id="path14" />
    <path
       d="m 2340,1887 c -27,-114 -129,-257 -237,-331 -108,-73 -311,-112 -445,-87 -73,15 -193,76 -246,126 -62,58 -63,54 -22,-78 33,-101 122,-285 158,-325 6,-7 12,-18 12,-23 0,-31 149,-192 245,-264 40,-30 171,-99 248,-131 63,-26 126,-53 139,-61 12,-6 99,135 166,268 99,199 119,332 93,604 -12,114 -69,336 -91,350 -4,3 -13,-19 -20,-48 z"
       id="path16" />
    <path
       d="m 1316,1478 c -14,-39 -36,-70 -85,-118 -55,-55 -78,-69 -134,-88 -37,-12 -88,-22 -113,-22 -86,0 -198,44 -254,100 -30,30 -24,4 16,-69 174,-315 469,-533 824,-608 121,-25 363,-25 483,1 48,11 87,23 87,27 0,4 -36,19 -80,34 -76,25 -214,92 -248,120 -10,8 -46,35 -81,61 -76,57 -175,170 -222,255 -19,33 -53,95 -76,137 -24,43 -53,110 -65,150 -13,39 -25,72 -28,72 -3,0 -14,-24 -24,-52 z"
       id="path18" />
    <path
       d="m 2185,690 c -3,-5 0,-20 6,-32 7,-13 12,-24 11,-25 -9,-14 2,-23 21,-17 12,3 23,7 24,8 1,1 -3,19 -9,39 -11,36 -39,50 -53,27 z"
       id="path20" />
  </g>
</svg>
